<svg width="25" height="25" viewBox="0 0 25 25" fill="none" xmlns="http://www.w3.org/2000/svg">
<path d="M11.2857 15.7871L8.25 12.7508L9.10789 11.8929L11.2857 14.0701L15.8909 9.46436L16.75 10.3235L11.2857 15.7871Z" fill="#1C554F"/>
<path d="M12.5 4C10.8189 4 9.17547 4.49852 7.77766 5.43251C6.37984 6.3665 5.29037 7.69402 4.64703 9.24719C4.00368 10.8004 3.83535 12.5094 4.16333 14.1583C4.4913 15.8071 5.30085 17.3217 6.4896 18.5104C7.67834 19.6992 9.1929 20.5087 10.8417 20.8367C12.4906 21.1646 14.1996 20.9963 15.7528 20.353C17.306 19.7096 18.6335 18.6202 19.5675 17.2223C20.5015 15.8245 21 14.1811 21 12.5C21 10.2457 20.1045 8.08365 18.5104 6.48959C16.9163 4.89553 14.7543 4 12.5 4ZM12.5 19.7857C11.059 19.7857 9.65041 19.3584 8.45228 18.5578C7.25415 17.7573 6.32032 16.6194 5.76888 15.2881C5.21744 13.9568 5.07316 12.4919 5.35428 11.0786C5.6354 9.66534 6.3293 8.36715 7.34823 7.34822C8.36715 6.3293 9.66534 5.6354 11.0786 5.35428C12.4919 5.07316 13.9568 5.21744 15.2881 5.76888C16.6194 6.32032 17.7573 7.25414 18.5579 8.45227C19.3584 9.6504 19.7857 11.059 19.7857 12.5C19.7857 14.4323 19.0181 16.2854 17.6518 17.6518C16.2854 19.0181 14.4323 19.7857 12.5 19.7857Z" fill="#1C554F"/>
</svg>
