<svg width="29" height="29" viewBox="0 0 29 29" fill="none" xmlns="http://www.w3.org/2000/svg">
<rect width="29" height="29" rx="5" fill="#35A296"/>
<path d="M19.3066 2.23071C19.0163 3.2733 18.7319 4.29825 18.4417 5.31091C15.812 5.69941 13.1882 5.69995 10.5585 5.31091C10.2682 4.29825 9.9838 3.2733 9.69356 2.23071C12.8805 3.43736 16.1197 3.43736 19.3066 2.23071ZM20.3109 2.476L22.3078 4.9315C21.4951 10.075 19.9858 15.841 17.8089 21.1207C17.1878 20.4581 16.3461 19.9825 15.3824 19.8008C17.0252 13.8531 18.668 8.45577 20.3109 2.476ZM8.68929 2.476C10.3321 8.45577 11.9749 13.8531 13.6177 19.8008C12.6541 19.9825 11.8124 20.4581 11.1912 21.1207C9.01437 15.841 7.50508 10.075 6.69238 4.9315L8.68929 2.476ZM14.5001 20.6772C16.3344 20.6772 17.8089 22.0345 17.8089 23.7232C17.8089 25.4118 16.3344 26.7692 14.5001 26.7692C12.6657 26.7692 11.1912 25.4118 11.1912 23.7232C11.1912 22.0345 12.6657 20.6772 14.5001 20.6772Z" fill="white"/>
</svg>
