<svg width="30" height="30" viewBox="0 0 30 30" fill="none" xmlns="http://www.w3.org/2000/svg">
<rect width="30" height="30" rx="5" fill="#E7F7F5"/>
<path fill-rule="evenodd" clip-rule="evenodd" d="M23.125 15C23.125 17.1549 22.269 19.2215 20.7452 20.7452C19.2215 22.269 17.1549 23.125 15 23.125C12.8451 23.125 10.7785 22.269 9.25476 20.7452C7.73102 19.2215 6.875 17.1549 6.875 15C6.875 12.8451 7.73102 10.7785 9.25476 9.25476C10.7785 7.73102 12.8451 6.875 15 6.875C17.1549 6.875 19.2215 7.73102 20.7452 9.25476C22.269 10.7785 23.125 12.8451 23.125 15ZM25 15C25 17.6522 23.9464 20.1957 22.0711 22.0711C20.1957 23.9464 17.6522 25 15 25C12.3478 25 9.8043 23.9464 7.92893 22.0711C6.05357 20.1957 5 17.6522 5 15C5 12.3478 6.05357 9.8043 7.92893 7.92893C9.8043 6.05357 12.3478 5 15 5C17.6522 5 20.1957 6.05357 22.0711 7.92893C23.9464 9.8043 25 12.3478 25 15ZM11.565 10.875C11.9956 10.6273 12.5069 10.5605 12.9866 10.6894C13.4663 10.8183 13.8753 11.1323 14.1237 11.5625C14.2053 11.706 14.2268 11.8759 14.1836 12.0352C14.1404 12.1944 14.0359 12.3301 13.8929 12.4127C13.75 12.4952 13.5802 12.5178 13.4207 12.4756C13.2611 12.4335 13.1247 12.3299 13.0413 12.1875C12.9864 12.0927 12.9077 12.014 12.8128 11.9593C12.718 11.9045 12.6105 11.8756 12.501 11.8755C12.3915 11.8754 12.2839 11.904 12.1889 11.9585C12.094 12.0131 12.0151 12.0916 11.96 12.1863C11.8768 12.3296 11.74 12.4341 11.5798 12.4766C11.4196 12.5192 11.249 12.4963 11.1056 12.4131C10.9622 12.3299 10.8578 12.1932 10.8152 12.0329C10.7727 11.8727 10.7955 11.7021 10.8787 11.5588C11.044 11.2745 11.2798 11.0387 11.565 10.875ZM15 20C16.3261 20 17.5979 19.4732 18.5355 18.5355C19.4732 17.5979 20 16.3261 20 15H10C10 16.3261 10.5268 17.5979 11.4645 18.5355C12.4021 19.4732 13.6739 20 15 20ZM16.565 10.875C16.9956 10.6273 17.5069 10.5605 17.9866 10.6894C18.4663 10.8183 18.8753 11.1323 19.1237 11.5625C19.1654 11.6336 19.1926 11.7123 19.2038 11.7939C19.215 11.8756 19.2099 11.9587 19.1888 12.0383C19.1677 12.118 19.1311 12.1928 19.0811 12.2582C19.031 12.3237 18.9685 12.3786 18.8971 12.4199C18.8257 12.4611 18.7469 12.4878 18.6651 12.4984C18.5834 12.509 18.5004 12.5034 18.4208 12.4818C18.3413 12.4602 18.2668 12.423 18.2016 12.3725C18.1365 12.322 18.082 12.2592 18.0412 12.1875C17.9864 12.0927 17.9077 12.014 17.8128 11.9593C17.718 11.9045 17.6105 11.8756 17.501 11.8755C17.3915 11.8754 17.2839 11.904 17.1889 11.9585C17.094 12.0131 17.015 12.0916 16.96 12.1863C16.8768 12.3296 16.74 12.4341 16.5798 12.4766C16.4196 12.5192 16.249 12.4963 16.1056 12.4131C15.9622 12.3299 15.8578 12.1932 15.8152 12.0329C15.7727 11.8727 15.7955 11.7021 15.8787 11.5588C16.044 11.2745 16.2811 11.0387 16.5662 10.875H16.565Z" fill="#1C554F"/>
</svg>
