<svg width="30" height="30" viewBox="0 0 30 30" fill="none" xmlns="http://www.w3.org/2000/svg">
<rect width="30" height="30" rx="5" fill="#E7F7F5"/>
<path d="M15 25C9.47059 25 5 20.5294 5 15C5 9.47059 9.47059 5 15 5C20.5294 5 25 9.47059 25 15C25 20.5294 20.5294 25 15 25ZM15 6.17647C10.1176 6.17647 6.17647 10.1176 6.17647 15C6.17647 19.8824 10.1176 23.8235 15 23.8235C19.8824 23.8235 23.8235 19.8824 23.8235 15C23.8235 10.1176 19.8824 6.17647 15 6.17647Z" fill="#1C554F"/>
<path d="M9.70605 14.4119H20.2943V15.5883H9.70605V14.4119Z" fill="#1C554F"/>
<path d="M14.4116 9.70581H15.5881V20.294H14.4116V9.70581Z" fill="#1C554F"/>
</svg>
