<svg width="338" height="218" viewBox="0 0 338 218" fill="none" xmlns="http://www.w3.org/2000/svg">
<g clip-path="url(#clip0_71_292)">
<path d="M0 197.089V141.331C0 140.773 0.0441625 140.029 0.136502 139.099C0.228842 138.173 0.642364 136.499 1.38108 134.08C2.1198 131.666 3.13153 129.527 4.42428 127.667C5.71704 125.811 7.79268 124.136 10.6512 122.648C13.5097 121.164 16.8781 120.416 20.7524 120.416H34.5913C38.4656 120.416 41.834 121.136 44.6925 122.575C47.551 124.019 49.6267 125.758 50.9194 127.804C52.2122 129.851 53.2239 131.897 53.9626 133.939C54.7013 135.985 55.1148 137.704 55.2072 139.095L55.3437 141.327V197.085C55.3437 197.643 55.2955 198.387 55.2072 199.313C55.1148 200.243 54.6973 201.917 53.9626 204.332C53.2239 206.75 52.2082 208.885 50.9194 210.745C49.6267 212.605 47.551 214.28 44.6925 215.764C41.834 217.252 38.4656 217.996 34.5913 217.996H20.7524C16.8781 217.996 13.5097 217.276 10.6512 215.837C7.78867 214.397 5.71303 212.654 4.42428 210.608C3.13153 208.566 2.11579 206.519 1.38108 204.473C0.642364 202.431 0.224827 200.708 0.136502 199.317L0 197.089ZM20.7604 134.364C18.7289 134.364 17.1391 134.946 15.9868 136.106C14.8306 137.271 14.2083 138.456 14.12 139.661L13.8429 141.335V197.093C13.8429 197.279 13.863 197.534 13.9112 197.861C13.9554 198.189 14.0959 198.747 14.3247 199.535C14.5536 200.324 14.8788 201.024 15.2923 201.626C15.7058 202.233 16.4004 202.791 17.3679 203.3C18.3355 203.814 19.4676 204.069 20.7604 204.069H34.5993C36.6268 204.069 38.2207 203.49 39.3729 202.326C40.5252 201.161 41.1474 199.98 41.2398 198.771L41.5168 197.097V141.339C41.5168 141.153 41.4927 140.899 41.4486 140.571C41.4004 140.247 41.2639 139.689 41.035 138.897C40.8022 138.108 40.481 137.413 40.0675 136.806C39.6539 136.204 38.9594 135.645 37.9918 135.132C37.0243 134.622 35.8921 134.364 34.5993 134.364H20.7604Z" fill="black"/>
<path d="M67.1992 204.061H74.1167C76.1441 204.061 77.738 203.482 78.8902 202.318C80.0425 201.157 80.6648 199.972 80.7571 198.763L81.0341 197.089V120.42H122.551V217.996H108.712V134.36H94.8731V197.089C94.8731 197.647 94.8249 198.391 94.7366 199.317C94.6442 200.247 94.2267 201.921 93.492 204.336C92.7533 206.754 91.7375 208.889 90.4488 210.749C89.156 212.61 87.0804 214.284 84.2219 215.768C81.3633 217.256 77.9949 218 74.1207 218H67.2032V204.061H67.1992Z" fill="black"/>
<path d="M175.92 218V193.049L160.005 208.942C159.451 209.593 158.644 210.43 157.584 211.449C156.524 212.472 154.352 213.819 151.08 215.493C147.804 217.167 144.552 218 141.324 218H134.407V120.424H148.246V200.854L150.321 199.18L171.082 178.268C171.636 177.71 172.579 176.364 173.92 174.225C175.257 172.089 175.928 170.415 175.928 169.206V120.416H189.766V217.992H175.928L175.92 218Z" fill="black"/>
<path d="M236.201 138.683C236.478 138.31 237.169 137.566 238.277 136.45L245.198 129.479C245.752 128.832 246.559 127.994 247.619 126.971C248.679 125.948 250.847 124.602 254.123 122.927C257.395 121.253 260.651 120.42 263.879 120.42H270.801V217.996H256.962V137.566L254.886 139.241L247.969 146.208C246.399 147.882 245.154 149.646 244.231 151.506C243.492 152.901 243.123 154.155 243.123 155.271V176.182H229.284V155.271C229.284 154.155 228.914 152.901 228.176 151.506C227.068 149.371 225.823 147.603 224.438 146.208L217.521 139.241C216.966 138.776 216.276 138.217 215.445 137.566V217.996H201.606V120.42H208.523C210.551 120.42 212.582 120.723 214.614 121.326C216.641 121.933 218.396 122.673 219.873 123.558C221.347 124.444 222.663 125.35 223.816 126.276C224.968 127.206 225.823 127.95 226.377 128.508L227.208 129.483C231.913 134.036 234.913 137.105 236.205 138.683H236.201Z" fill="black"/>
<path d="M282.644 218V120.424H338V218H324.161V134.363H296.483V218H282.644Z" fill="black"/>
<path d="M184.772 101.244H52.7021V60.0402L184.772 0V101.244Z" fill="url(#paint0_linear_71_292)"/>
<path d="M209.905 8.35071L198.398 0V101.244H209.905V8.35071Z" fill="#69B1B2"/>
<path d="M235.037 24.1827L223.531 15.832V101.244H235.037V24.1827Z" fill="#69B1B2"/>
<path d="M260.166 42.7806L248.659 34.4299V101.244H260.166V42.7806Z" fill="#69B1B2"/>
<path d="M285.298 58.9766L273.792 50.6218V101.244H285.298V58.9766Z" fill="#69B1B2"/>
</g>
<defs>
<linearGradient id="paint0_linear_71_292" x1="52.7021" y1="50.6219" x2="184.772" y2="50.6219" gradientUnits="userSpaceOnUse">
<stop offset="0.23" stop-color="#69B1B2"/>
<stop offset="1" stop-color="#AEFDFF"/>
</linearGradient>
<clipPath id="clip0_71_292">
<rect width="338" height="218" fill="white"/>
</clipPath>
</defs>
</svg>
